<svg class="cloud s820x600" xmlns="http://www.w3.org/2000/svg" width="820" height="600" viewBox="0 0 820 600">
            <defs>
                <pattern id="circle" x="0" y="0" width="12" height="12" patternUnits="userSpaceOnUse">
                    <circle cx="1.5" cy="1.5" r="1.5"></circle>
                </pattern>
            </defs>

            <path class="path-bg" d="M88.888 173.628c-46.88 28.515-62.654 90.118-35.234 137.593a98.94 98.94 0 0 0 12.361 16.977l-17.311 10.53C1.824 367.243-13.951 428.846 13.47 476.32c27.42 47.475 87.653 62.845 134.533 34.329l22.954-13.963a100.152 100.152 0 0 0 11.563 30.775c27.42 47.475 87.652 62.844 134.532 34.329l49.183-29.917a100.382 100.382 0 0 0 8.641 19.469c27.421 47.474 87.653 62.844 134.533 34.329l261.887-159.299c46.88-28.515 62.655-90.118 35.234-137.593-22.026-38.135-65.225-55.555-105.668-46.152a100.219 100.219 0 0 0-10.071-24.332c-5.911-10.234-13.346-18.977-21.845-26.109 36.264-31.231 46.461-85.238 21.844-127.86-27.421-47.474-87.653-62.843-134.533-34.328l-62.369 37.938a100.328 100.328 0 0 0-8.58-19.278c-27.42-47.474-87.653-62.844-134.532-34.329L88.888 173.629Z"></path>

            <path class="path-pat" d="M88.888 173.628c-46.88 28.515-62.654 90.118-35.234 137.593a98.94 98.94 0 0 0 12.361 16.977l-17.311 10.53C1.824 367.243-13.951 428.846 13.47 476.32c27.42 47.475 87.653 62.845 134.533 34.329l22.954-13.963a100.152 100.152 0 0 0 11.563 30.775c27.42 47.475 87.652 62.844 134.532 34.329l49.183-29.917a100.382 100.382 0 0 0 8.641 19.469c27.421 47.474 87.653 62.844 134.533 34.329l261.887-159.299c46.88-28.515 62.655-90.118 35.234-137.593-22.026-38.135-65.225-55.555-105.668-46.152a100.219 100.219 0 0 0-10.071-24.332c-5.911-10.234-13.346-18.977-21.845-26.109 36.264-31.231 46.461-85.238 21.844-127.86-27.421-47.474-87.653-62.843-134.533-34.328l-62.369 37.938a100.328 100.328 0 0 0-8.58-19.278c-27.42-47.474-87.653-62.844-134.532-34.329L88.888 173.629Z"></path>
        </svg>